<svg version="1.1" xmlns="http://www.w3.org/2000/svg" width="500" height="208">
<path d="M0 0 C165 0 330 0 500 0 C500 68.64 500 137.28 500 208 C335 208 170 208 0 208 C0 139.36 0 70.72 0 0 Z " fill="#FEFEFE" transform="translate(0,0)"/>
<path d="M0 0 C5.71283979 5.88595615 8.13194701 11.63414367 8.375 19.75 C7.9748515 40.03252703 -3.2063676 60.97744128 -14.9375 77.125 C-14.33421875 77.22683594 -13.7309375 77.32867187 -13.109375 77.43359375 C-9.52777472 78.57377945 -8.18283341 81.19359249 -5.9375 84.125 C-5.32261719 83.55910156 -4.70773437 82.99320312 -4.07421875 82.41015625 C-3.26597656 81.67667969 -2.45773437 80.94320312 -1.625 80.1875 C-0.82449219 79.45660156 -0.02398437 78.72570312 0.80078125 77.97265625 C5.33725651 74.26669286 10.47211865 74.65700765 16.0625 75.125 C22.04542938 76.98853538 25.71597235 79.88455706 29.375 84.9375 C30.0625 87.125 30.0625 87.125 30.0625 95.125 C21.8125 95.125 13.5625 95.125 5.0625 95.125 C6.51538986 99.7091963 6.51538986 99.7091963 8.0625 101.125 C10.09631744 101.32465405 10.09631744 101.32465405 12.4375 101.3125 C13.22898437 101.32667969 14.02046875 101.34085937 14.8359375 101.35546875 C17.34981333 101.27007509 17.34981333 101.27007509 20.0625 99.125 C23.44943192 99.47237763 26.09971286 100.47900715 29.0625 102.125 C28.38760427 104.82458293 27.72758238 106.63780712 25.44140625 108.3125 C18.67245717 112.1402633 13.82156845 112.83127418 6.0625 112.125 C0.63035007 110.41524058 -2.62731491 106.53858012 -5.9375 102.125 C-6.2675 105.095 -6.5975 108.065 -6.9375 111.125 C-10.8975 111.125 -14.8575 111.125 -18.9375 111.125 C-19.2675 102.875 -19.5975 94.625 -19.9375 86.125 C-23.55407796 87.33052599 -24.32045562 88.61016585 -26.5625 91.625 C-29.9375 96.125 -29.9375 96.125 -30.9375 97.125 C-31.17277773 99.47487262 -31.35136417 101.83056039 -31.5 104.1875 C-31.58378906 105.47785156 -31.66757812 106.76820312 -31.75390625 108.09765625 C-31.81449219 109.09667969 -31.87507812 110.09570312 -31.9375 111.125 C-32.72253906 111.11597656 -33.50757813 111.10695313 -34.31640625 111.09765625 C-41.75527448 111.23425447 -41.75527448 111.23425447 -47.6875 115.25 C-48.77468878 116.53842324 -49.8580044 117.83012427 -50.9375 119.125 C-52.16475564 120.25439259 -53.41594983 121.35822052 -54.6875 122.4375 C-57.87935122 125.18298122 -60.97668827 128.01089615 -64.0625 130.875 C-96.65311532 160.51097162 -141.95150787 191.32797932 -187.5390625 190.46484375 C-195.74915414 190.04510848 -202.06257629 186.05607789 -207.53125 180.05859375 C-213.09827068 172.40394031 -212.72622592 163.11003783 -211.5390625 154.1015625 C-208.5106855 138.48772265 -200.38991628 124.39059777 -191.9375 111.125 C-194.5775 111.125 -197.2175 111.125 -199.9375 111.125 C-199.9375 99.575 -199.9375 88.025 -199.9375 76.125 C-195.9775 76.125 -192.0175 76.125 -187.9375 76.125 C-187.9375 77.115 -187.9375 78.105 -187.9375 79.125 C-186.4525 78.135 -186.4525 78.135 -184.9375 77.125 C-180.99249384 74.90246132 -177.40178517 74.24733335 -172.9375 75.125 C-170.12840692 76.2390335 -167.5318078 77.57945493 -164.9375 79.125 C-164.53132446 78.23204224 -164.53132446 78.23204224 -164.11694336 77.32104492 C-162.95144487 75.15096441 -161.79557034 73.72515376 -160.06640625 71.98828125 C-159.49760742 71.41553467 -158.92880859 70.84278809 -158.34277344 70.25268555 C-157.43060059 69.3541687 -157.43060059 69.3541687 -156.5 68.4375 C-155.87254883 67.81464111 -155.24509766 67.19178223 -154.59863281 66.55004883 C-150.10357258 62.14116865 -145.424626 58.0783123 -140.48046875 54.17578125 C-138.04338268 52.21038925 -135.77963826 50.14437177 -133.5 48 C-115.03006788 31.27801098 -93.50940598 17.58318184 -70.9375 7.125 C-70.29538574 6.81868652 -69.65327148 6.51237305 -68.99169922 6.19677734 C-58.60273373 1.25149548 -48.10781031 -2.14171881 -36.9375 -4.875 C-36.11894531 -5.07738281 -35.30039062 -5.27976562 -34.45703125 -5.48828125 C-22.39522537 -7.3396282 -10.45367342 -6.6725575 0 0 Z " fill="#BAD8F4" transform="translate(351.9375,11.875)"/>
<path d="M0 0 C5.71283979 5.88595615 8.13194701 11.63414367 8.375 19.75 C7.9748515 40.03252703 -3.2063676 60.97744128 -14.9375 77.125 C-14.33421875 77.22683594 -13.7309375 77.32867187 -13.109375 77.43359375 C-9.52777472 78.57377945 -8.18283341 81.19359249 -5.9375 84.125 C-5.32261719 83.55910156 -4.70773437 82.99320312 -4.07421875 82.41015625 C-3.26597656 81.67667969 -2.45773437 80.94320312 -1.625 80.1875 C-0.82449219 79.45660156 -0.02398437 78.72570312 0.80078125 77.97265625 C5.33725651 74.26669286 10.47211865 74.65700765 16.0625 75.125 C22.04542938 76.98853538 25.71597235 79.88455706 29.375 84.9375 C30.0625 87.125 30.0625 87.125 30.0625 95.125 C21.8125 95.125 13.5625 95.125 5.0625 95.125 C6.51538986 99.7091963 6.51538986 99.7091963 8.0625 101.125 C10.09631744 101.32465405 10.09631744 101.32465405 12.4375 101.3125 C13.22898437 101.32667969 14.02046875 101.34085937 14.8359375 101.35546875 C17.34981333 101.27007509 17.34981333 101.27007509 20.0625 99.125 C23.44943192 99.47237763 26.09971286 100.47900715 29.0625 102.125 C28.38760427 104.82458293 27.72758238 106.63780712 25.44140625 108.3125 C18.67245717 112.1402633 13.82156845 112.83127418 6.0625 112.125 C0.63035007 110.41524058 -2.62731491 106.53858012 -5.9375 102.125 C-6.2675 105.095 -6.5975 108.065 -6.9375 111.125 C-10.8975 111.125 -14.8575 111.125 -18.9375 111.125 C-19.2675 102.875 -19.5975 94.625 -19.9375 86.125 C-23.55407796 87.33052599 -24.32045562 88.61016585 -26.5625 91.625 C-29.9375 96.125 -29.9375 96.125 -30.9375 97.125 C-31.17277773 99.47487262 -31.35136417 101.83056039 -31.5 104.1875 C-31.58378906 105.47785156 -31.66757812 106.76820312 -31.75390625 108.09765625 C-31.81449219 109.09667969 -31.87507812 110.09570312 -31.9375 111.125 C-32.72253906 111.11597656 -33.50757813 111.10695313 -34.31640625 111.09765625 C-41.75527448 111.23425447 -41.75527448 111.23425447 -47.6875 115.25 C-48.77468878 116.53842324 -49.8580044 117.83012427 -50.9375 119.125 C-52.16475564 120.25439259 -53.41594983 121.35822052 -54.6875 122.4375 C-57.87935122 125.18298122 -60.97668827 128.01089615 -64.0625 130.875 C-96.65311532 160.51097162 -141.95150787 191.32797932 -187.5390625 190.46484375 C-195.74915414 190.04510848 -202.06257629 186.05607789 -207.53125 180.05859375 C-213.09827068 172.40394031 -212.72622592 163.11003783 -211.5390625 154.1015625 C-208.5106855 138.48772265 -200.38991628 124.39059777 -191.9375 111.125 C-194.5775 111.125 -197.2175 111.125 -199.9375 111.125 C-199.9375 99.575 -199.9375 88.025 -199.9375 76.125 C-195.9775 76.125 -192.0175 76.125 -187.9375 76.125 C-187.9375 77.115 -187.9375 78.105 -187.9375 79.125 C-186.4525 78.135 -186.4525 78.135 -184.9375 77.125 C-180.99249384 74.90246132 -177.40178517 74.24733335 -172.9375 75.125 C-170.12840692 76.2390335 -167.5318078 77.57945493 -164.9375 79.125 C-164.53132446 78.23204224 -164.53132446 78.23204224 -164.11694336 77.32104492 C-162.95144487 75.15096441 -161.79557034 73.72515376 -160.06640625 71.98828125 C-159.49760742 71.41553467 -158.92880859 70.84278809 -158.34277344 70.25268555 C-157.43060059 69.3541687 -157.43060059 69.3541687 -156.5 68.4375 C-155.87254883 67.81464111 -155.24509766 67.19178223 -154.59863281 66.55004883 C-150.10357258 62.14116865 -145.424626 58.0783123 -140.48046875 54.17578125 C-138.04338268 52.21038925 -135.77963826 50.14437177 -133.5 48 C-115.03006788 31.27801098 -93.50940598 17.58318184 -70.9375 7.125 C-70.29538574 6.81868652 -69.65327148 6.51237305 -68.99169922 6.19677734 C-58.60273373 1.25149548 -48.10781031 -2.14171881 -36.9375 -4.875 C-36.11894531 -5.07738281 -35.30039062 -5.27976562 -34.45703125 -5.48828125 C-22.39522537 -7.3396282 -10.45367342 -6.6725575 0 0 Z M-160.9375 76.125 C-159.9475 76.62 -159.9475 76.62 -158.9375 77.125 C-158.2775 76.795 -157.6175 76.465 -156.9375 76.125 C-150.79284299 75.61294525 -147.86800044 76.09095418 -142.9375 80.125 C-141.56863049 81.42182374 -140.2205709 82.74323134 -138.9375 84.125 C-138.40125 83.361875 -137.865 82.59875 -137.3125 81.8125 C-134.12471072 78.20526477 -131.41025198 76.38274613 -126.5390625 75.875 C-121.61657676 75.75674208 -117.5341421 76.18957175 -112.9375 78.125 C-112.9375 77.465 -112.9375 76.805 -112.9375 76.125 C-108.6475 76.125 -104.3575 76.125 -99.9375 76.125 C-99.9375 79.095 -99.9375 82.065 -99.9375 85.125 C-99.23625 84.3825 -98.535 83.64 -97.8125 82.875 C-93.38541129 78.64039341 -90.25622958 75.89604099 -84 75.6875 C-79.35228854 75.86328334 -76.03862509 76.98528256 -71.9375 79.125 C-71.9375 78.135 -71.9375 77.145 -71.9375 76.125 C-67.9775 76.125 -64.0175 76.125 -59.9375 76.125 C-59.98184447 81.6757038 -60.05187772 87.22529077 -60.14501953 92.77539062 C-60.17312497 94.66071654 -60.19439106 96.54615799 -60.20849609 98.43164062 C-60.23007089 101.152941 -60.27679349 103.87286731 -60.328125 106.59375 C-60.32935364 107.42741089 -60.33058228 108.26107178 -60.33184814 109.11999512 C-60.47357718 114.87167484 -61.71444001 119.30651012 -64.9375 124.125 C-66.97265625 125.74609375 -66.97265625 125.74609375 -69 126.5625 C-69.67160156 126.84996094 -70.34320313 127.13742188 -71.03515625 127.43359375 C-78.3070889 130.07657543 -85.68068976 129.97080794 -92.9375 127.125 C-96.34481799 124.85345467 -98.43123726 122.95912335 -99.9375 119.125 C-97.94208132 118.44474363 -95.94132009 117.78009503 -93.9375 117.125 C-92.885625 116.7228125 -92.885625 116.7228125 -91.8125 116.3125 C-90.884375 116.2196875 -90.884375 116.2196875 -89.9375 116.125 C-89.380625 116.599375 -88.82375 117.07375 -88.25 117.5625 C-84.66315731 119.98604236 -81.13060887 119.92333212 -76.9375 119.125 C-73.76765739 117.12320005 -73.76765739 117.12320005 -71.9375 114.125 C-71.51763054 111.41336222 -71.51763054 111.41336222 -71.9375 109.125 C-73.0821875 109.62 -73.0821875 109.62 -74.25 110.125 C-80.46484801 111.81038251 -86.45568172 112.36590914 -92.3125 109.4375 C-94.97098731 107.09549927 -97.50465366 104.70095495 -99.9375 102.125 C-99.9375 105.095 -99.9375 108.065 -99.9375 111.125 C-103.8975 111.125 -107.8575 111.125 -111.9375 111.125 C-112.2675 109.805 -112.5975 108.485 -112.9375 107.125 C-114.113125 108.115 -114.113125 108.115 -115.3125 109.125 C-119.61140362 111.97060996 -123.95714554 111.90638683 -128.9375 111.125 C-133.81870132 109.39296082 -137.00347722 106.3499928 -139.9375 102.125 C-139.9375 105.095 -139.9375 108.065 -139.9375 111.125 C-143.8975 111.125 -147.8575 111.125 -151.9375 111.125 C-151.90269531 109.49949219 -151.86789063 107.87398438 -151.83203125 106.19921875 C-151.80389606 104.07032281 -151.77659562 101.94141573 -151.75 99.8125 C-151.72486328 98.74064453 -151.69972656 97.66878906 -151.67382812 96.56445312 C-151.65932617 95.02241211 -151.65932617 95.02241211 -151.64453125 93.44921875 C-151.62096558 92.0274231 -151.62096558 92.0274231 -151.59692383 90.5769043 C-151.74454701 88.08657262 -151.74454701 88.08657262 -153.26831055 86.31567383 C-155.85957528 84.46726106 -157.85116411 84.73920801 -160.9375 85.125 C-162.70896603 86.25778191 -162.70896603 86.25778191 -163.9375 88.125 C-164.35078556 90.63861861 -164.35078556 90.63861861 -164.23046875 93.44921875 C-164.22080078 94.47724609 -164.21113281 95.50527344 -164.20117188 96.56445312 C-164.17603516 97.63630859 -164.15089844 98.70816406 -164.125 99.8125 C-164.11146484 100.89595703 -164.09792969 101.97941406 -164.08398438 103.09570312 C-164.04861023 105.77234704 -163.99480304 108.44873575 -163.9375 111.125 C-167.8975 111.125 -171.8575 111.125 -175.9375 111.125 C-175.9375 105.515 -175.9375 99.905 -175.9375 94.125 C-179.25263044 97.44013044 -181.6549149 99.87988831 -184.171875 103.609375 C-184.74180176 104.45371094 -185.31172852 105.29804687 -185.89892578 106.16796875 C-186.48915527 107.06128906 -187.07938477 107.95460938 -187.6875 108.875 C-188.30222168 109.80441406 -188.91694336 110.73382813 -189.55029297 111.69140625 C-197.55721224 123.95875335 -204.22467402 135.86856874 -207.9375 150.125 C-208.55625 151.8884375 -208.55625 151.8884375 -209.1875 153.6875 C-211.2719324 163.2411485 -210.37423493 171.44116915 -205.3125 179.8125 C-200.12282988 184.86559986 -194.19996905 187.76187655 -186.9375 188.125 C-186.03773438 188.186875 -185.13796875 188.24875 -184.2109375 188.3125 C-142.03135523 189.98712361 -100.56614132 158.70078931 -69.9375 133.125 C-69.30215332 132.59551758 -68.66680664 132.06603516 -68.01220703 131.52050781 C-57.00925288 122.31940549 -57.00925288 122.31940549 -46.9375 112.125 C-46.9375 111.795 -46.9375 111.465 -46.9375 111.125 C-50.5675 111.125 -54.1975 111.125 -57.9375 111.125 C-57.9375 99.575 -57.9375 88.025 -57.9375 76.125 C-53.9775 76.125 -50.0175 76.125 -45.9375 76.125 C-45.9375 87.345 -45.9375 98.565 -45.9375 110.125 C-45.2775 109.795 -44.6175 109.465 -43.9375 109.125 C-43.9375 98.235 -43.9375 87.345 -43.9375 76.125 C-39.9775 76.125 -36.0175 76.125 -31.9375 76.125 C-31.6075 77.115 -31.2775 78.105 -30.9375 79.125 C-30.31875 78.650625 -29.7 78.17625 -29.0625 77.6875 C-25.75036465 76.03143233 -24.67558445 76.12417035 -21.125 76.25 C-17.45203428 75.96160417 -16.2913364 75.51879606 -13.79296875 72.73828125 C-11.63563167 69.27888273 -9.76329178 65.76572653 -7.9375 62.125 C-7.22891218 60.79041647 -6.51794082 59.45709595 -5.8046875 58.125 C-1.71084988 50.35026676 1.64209746 42.5964089 4.0625 34.125 C4.28679687 33.42246094 4.51109375 32.71992187 4.7421875 31.99609375 C7.16316233 23.78799415 7.14513436 15.72968234 3.1796875 8.05859375 C2.81101562 7.42050781 2.44234375 6.78242188 2.0625 6.125 C1.258125 4.7328125 1.258125 4.7328125 0.4375 3.3125 C-7.4673777 -3.96830841 -18.63071087 -4.37762107 -28.79199219 -4.02001953 C-78.78488726 -0.64089121 -127.62349659 42.03625232 -160.9375 76.125 Z " fill="#262D2E" transform="translate(351.9375,11.875)"/>
<path d="M0 0 C1.66918945 1.19067383 1.66918945 1.19067383 3 3 C3.34057617 5.4519043 3.34057617 5.4519043 3.29296875 8.32421875 C3.2784668 9.86625977 3.2784668 9.86625977 3.26367188 11.43945312 C3.23853516 12.51130859 3.21339844 13.58316406 3.1875 14.6875 C3.16719727 16.31268555 3.16719727 16.31268555 3.14648438 17.97070312 C3.11111023 20.64734704 3.05730304 23.32373575 3 26 C6.96 26 10.92 26 15 26 C15 23.03 15 20.06 15 17 C15.515625 17.7425 16.03125 18.485 16.5625 19.25 C20.03329878 23.16577299 23.26835512 25.56522051 28.4296875 26.38671875 C34.46935323 26.65290463 38.06485528 25.43314416 43 22 C43 23.32 43 24.64 43 26 C46.96 26 50.92 26 55 26 C55 23.03 55 20.06 55 17 C55.70125 17.7425 56.4025 18.485 57.125 19.25 C61.82735585 23.74790559 64.87787462 26.24040396 71.5 26.375 C75.64539027 26.22796024 79.15549927 25.6624868 83 24 C82.52264808 30.32491289 82.52264808 30.32491289 80.5 32.9375 C76.70336422 34.55107021 73.06291969 34.60303075 69 34 C67.66209359 33.00612666 66.32781878 32.0073108 65 31 C61.9502491 31.68314723 61.9502491 31.68314723 59 33 C57.67088318 33.34976758 56.33917261 33.69096017 55 34 C58.02475156 39.04125259 60.52165018 41.90680434 66.1875 43.6875 C74.53112797 44.61456977 81.57968273 44.37608454 89 40 C92.8476096 35.76762944 93.86879653 31.46748346 95 26 C99.29 26 103.58 26 108 26 C104.06293763 30.7197314 100.01981157 35.08835974 95.5 39.25 C94.89615479 39.80792236 94.29230957 40.36584473 93.67016602 40.94067383 C87.92014169 46.18577438 81.88068083 50.99485941 75.68945312 55.70458984 C74.05409943 56.95851856 72.43888918 58.2342297 70.828125 59.51953125 C42.39253675 82.08457503 3.14359525 106.31338379 -34.52734375 102.76171875 C-41.08447003 101.62084792 -47.25903287 98.49605449 -51.41796875 93.19140625 C-56.67001583 84.37479291 -55.83758831 74.47178563 -53.5 64.8125 C-47.47973499 44.18361989 -35.23353601 25.71604549 -22 9 C-21.67 9 -21.34 9 -21 9 C-21 14.61 -21 20.22 -21 26 C-17.04 26 -13.08 26 -9 26 C-9.03480469 24.37449219 -9.06960937 22.74898437 -9.10546875 21.07421875 C-9.13360394 18.94532281 -9.16090438 16.81641573 -9.1875 14.6875 C-9.21263672 13.61564453 -9.23777344 12.54378906 -9.26367188 11.43945312 C-9.27333984 10.41142578 -9.28300781 9.38339844 -9.29296875 8.32421875 C-9.3086792 7.37635498 -9.32438965 6.42849121 -9.34057617 5.4519043 C-9 3 -9 3 -7.66918945 1.19067383 C-5.07792472 -0.65773894 -3.08633589 -0.38579199 0 0 Z " fill="#CBEFE4" transform="translate(197,97)"/>
<path d="M0 0 C5.71283979 5.88595615 8.13194701 11.63414367 8.375 19.75 C7.9748515 40.03252703 -3.2063676 60.97744128 -14.9375 77.125 C-14.33421875 77.22683594 -13.7309375 77.32867187 -13.109375 77.43359375 C-9.52777472 78.57377945 -8.18283341 81.19359249 -5.9375 84.125 C-5.32261719 83.55910156 -4.70773437 82.99320312 -4.07421875 82.41015625 C-3.26597656 81.67667969 -2.45773437 80.94320312 -1.625 80.1875 C-0.82449219 79.45660156 -0.02398437 78.72570312 0.80078125 77.97265625 C5.33725651 74.26669286 10.47211865 74.65700765 16.0625 75.125 C22.04542938 76.98853538 25.71597235 79.88455706 29.375 84.9375 C30.0625 87.125 30.0625 87.125 30.0625 95.125 C21.8125 95.125 13.5625 95.125 5.0625 95.125 C6.51538986 99.7091963 6.51538986 99.7091963 8.0625 101.125 C10.09631744 101.32465405 10.09631744 101.32465405 12.4375 101.3125 C13.22898437 101.32667969 14.02046875 101.34085937 14.8359375 101.35546875 C17.34981333 101.27007509 17.34981333 101.27007509 20.0625 99.125 C23.44943192 99.47237763 26.09971286 100.47900715 29.0625 102.125 C28.38760427 104.82458293 27.72758238 106.63780712 25.44140625 108.3125 C18.67245717 112.1402633 13.82156845 112.83127418 6.0625 112.125 C0.63035007 110.41524058 -2.62731491 106.53858012 -5.9375 102.125 C-6.2675 105.095 -6.5975 108.065 -6.9375 111.125 C-10.8975 111.125 -14.8575 111.125 -18.9375 111.125 C-19.2675 102.875 -19.5975 94.625 -19.9375 86.125 C-23.55407796 87.33052599 -24.32045562 88.61016585 -26.5625 91.625 C-29.9375 96.125 -29.9375 96.125 -30.9375 97.125 C-31.17277773 99.47487262 -31.35136417 101.83056039 -31.5 104.1875 C-31.58378906 105.47785156 -31.66757812 106.76820312 -31.75390625 108.09765625 C-31.81449219 109.09667969 -31.87507812 110.09570312 -31.9375 111.125 C-32.72253906 111.11597656 -33.50757813 111.10695313 -34.31640625 111.09765625 C-41.75527448 111.23425447 -41.75527448 111.23425447 -47.6875 115.25 C-48.77468878 116.53842324 -49.8580044 117.83012427 -50.9375 119.125 C-52.16475564 120.25439259 -53.41594983 121.35822052 -54.6875 122.4375 C-57.87935122 125.18298122 -60.97668827 128.01089615 -64.0625 130.875 C-96.65311532 160.51097162 -141.95150787 191.32797932 -187.5390625 190.46484375 C-195.74915414 190.04510848 -202.06257629 186.05607789 -207.53125 180.05859375 C-213.09827068 172.40394031 -212.72622592 163.11003783 -211.5390625 154.1015625 C-208.12934797 136.52160579 -198.50104126 120.31975857 -187.9375 106.125 C-187.6075 107.115 -187.2775 108.105 -186.9375 109.125 C-188.30859375 111.734375 -188.30859375 111.734375 -190.375 114.875 C-191.12185144 116.04473532 -191.86521934 117.21670056 -192.60546875 118.390625 C-193.18433838 119.30811523 -193.18433838 119.30811523 -193.77490234 120.24414062 C-199.6878387 129.81013426 -204.03077861 139.21714553 -206.9375 150.125 C-207.55625 151.8884375 -207.55625 151.8884375 -208.1875 153.6875 C-209.97050577 161.8596098 -209.74805445 169.63528952 -205.9375 177.125 C-201.87022838 182.09610976 -197.04781708 185.3785239 -190.8125 186.875 C-189.53375 186.9575 -188.255 187.04 -186.9375 187.125 C-186.03515625 187.18816406 -185.1328125 187.25132812 -184.203125 187.31640625 C-142.01270284 188.94315138 -100.57879928 157.72262007 -69.9375 132.125 C-69.29683594 131.5902002 -68.65617188 131.05540039 -67.99609375 130.50439453 C-61.0072125 124.64743937 -54.26480727 118.70539956 -47.9375 112.125 C-51.2375 111.795 -54.5375 111.465 -57.9375 111.125 C-57.9375 99.575 -57.9375 88.025 -57.9375 76.125 C-53.9775 76.125 -50.0175 76.125 -45.9375 76.125 C-45.6075 87.015 -45.2775 97.905 -44.9375 109.125 C-44.6075 98.235 -44.2775 87.345 -43.9375 76.125 C-39.9775 76.125 -36.0175 76.125 -31.9375 76.125 C-31.6075 76.785 -31.2775 77.445 -30.9375 78.125 C-30.31875 77.650625 -29.7 77.17625 -29.0625 76.6875 C-25.8037744 75.0581372 -24.6372171 75.07787779 -21.1328125 75.12890625 C-17.90851287 74.8390651 -16.43183515 74.60917579 -14.09619141 72.3215332 C-12.43041935 69.78350137 -11.0390862 67.21840616 -9.6875 64.5 C-9.18226807 63.54810791 -8.67703613 62.59621582 -8.15649414 61.61547852 C4.11433242 38.18818722 4.11433242 38.18818722 4.3359375 12.61328125 C1.58843238 5.85620565 -1.98047968 1.73109559 -8.75 -1.1875 C-32.08615463 -8.90348661 -58.08705801 4.06973001 -78.79296875 13.9296875 C-109.43762528 29.51171625 -136.99148022 52.62209604 -160.9375 77.125 C-161.9275 76.135 -161.9275 76.135 -162.9375 75.125 C-155.73766105 67.73596821 -148.58666738 60.57418046 -140.48046875 54.17578125 C-138.04338268 52.21038925 -135.77963826 50.14437177 -133.5 48 C-115.03006788 31.27801098 -93.50940598 17.58318184 -70.9375 7.125 C-70.29538574 6.81868652 -69.65327148 6.51237305 -68.99169922 6.19677734 C-58.60273373 1.25149548 -48.10781031 -2.14171881 -36.9375 -4.875 C-36.11894531 -5.07738281 -35.30039062 -5.27976562 -34.45703125 -5.48828125 C-22.39522537 -7.3396282 -10.45367342 -6.6725575 0 0 Z " fill="#212730" transform="translate(351.9375,11.875)"/>
<path d="M0 0 C4.4786963 2.54670966 8.5969358 5.7516139 10.1875 10.8125 C10.1875 13.4525 10.1875 16.0925 10.1875 18.8125 C1.9375 18.8125 -6.3125 18.8125 -14.8125 18.8125 C-13.35961014 23.3966963 -13.35961014 23.3966963 -11.8125 24.8125 C-9.77868256 25.01215405 -9.77868256 25.01215405 -7.4375 25 C-6.64601563 25.01417969 -5.85453125 25.02835938 -5.0390625 25.04296875 C-2.52518667 24.95757509 -2.52518667 24.95757509 0.1875 22.8125 C3.57443192 23.15987763 6.22471286 24.16650715 9.1875 25.8125 C8.51260427 28.51208293 7.85258238 30.32530712 5.56640625 32 C-1.20254283 35.8277633 -6.05343155 36.51877418 -13.8125 35.8125 C-19.24464993 34.10274058 -22.50231491 30.22608012 -25.8125 25.8125 C-26.1425 28.7825 -26.4725 31.7525 -26.8125 34.8125 C-30.7725 34.8125 -34.7325 34.8125 -38.8125 34.8125 C-39.1425 26.5625 -39.4725 18.3125 -39.8125 9.8125 C-43.43677778 11.02059259 -44.6511495 12.64711573 -47.3125 15.375 C-49.8125 17.8125 -49.8125 17.8125 -51.8125 18.8125 C-52.27957789 14.79563013 -52.13400834 13.24748188 -49.6875 9.9375 C-46.8125 7.8125 -46.8125 7.8125 -43.8125 7.9375 C-40.80387723 8.15691555 -40.80387723 8.15691555 -39.3203125 6.2734375 C-38.06417519 4.49213544 -36.9009105 2.70036246 -35.8125 0.8125 C-33.10318581 0.96731795 -31.34665961 1.29422081 -29.3671875 3.21484375 C-28.13570358 4.71021708 -26.9695163 6.2587924 -25.8125 7.8125 C-24.89017578 6.96365234 -24.89017578 6.96365234 -23.94921875 6.09765625 C-23.14097656 5.36417969 -22.33273437 4.63070312 -21.5 3.875 C-20.29923828 2.77865234 -20.29923828 2.77865234 -19.07421875 1.66015625 C-13.68679403 -2.74096964 -6.30149477 -1.96276067 0 0 Z " fill="#323232" transform="translate(371.8125,88.1875)"/>
<path d="M0 0 C2.56323205 1.12626863 4.65447295 2.4363153 7 4 C3.84549762 8.38523627 0.56499936 12.55641911 -3.0625 16.5625 C-9.38670573 22.95316174 -9.38670573 22.95316174 -12 31 C-12.66 31.66 -13.32 32.32 -14 33 C-14.66 33 -15.32 33 -16 33 C-17.63676257 34.9600281 -17.63676257 34.9600281 -19 37 C-22.96 36.505 -22.96 36.505 -27 36 C-27 24.45 -27 12.9 -27 1 C-23.04 1 -19.08 1 -15 1 C-15 1.99 -15 2.98 -15 4 C-14.01 3.34 -13.02 2.68 -12 2 C-7.96062568 -0.28029196 -4.56750154 -0.92777375 0 0 Z " fill="#323233" transform="translate(179,87)"/>
<path d="M0 0 C6.67951263 6.88192211 8.46085421 13.52166751 8.33203125 22.8671875 C7.89715306 28.12354133 6.56435718 33.08305091 5.0625 38.125 C4.4025 37.795 3.7425 37.465 3.0625 37.125 C3.206875 36.45855469 3.35125 35.79210938 3.5 35.10546875 C5.59340261 24.71114327 6.7904814 15.51357879 1.0625 6.125 C-2.97205384 0.62333568 -8.44414605 -1.43718591 -14.9375 -2.875 C-55.83222292 -6.67719531 -98.73196329 22.75469816 -128.61230469 47.51269531 C-139.83450211 56.87389394 -150.72110105 66.67101037 -160.9375 77.125 C-161.5975 76.465 -162.2575 75.805 -162.9375 75.125 C-155.73766105 67.73596821 -148.58666738 60.57418046 -140.48046875 54.17578125 C-138.04338268 52.21038925 -135.77963826 50.14437177 -133.5 48 C-115.03006788 31.27801098 -93.50940598 17.58318184 -70.9375 7.125 C-70.29538574 6.81868652 -69.65327148 6.51237305 -68.99169922 6.19677734 C-58.60273373 1.25149548 -48.10781031 -2.14171881 -36.9375 -4.875 C-36.11894531 -5.07738281 -35.30039062 -5.27976562 -34.45703125 -5.48828125 C-22.39522537 -7.3396282 -10.45367342 -6.6725575 0 0 Z " fill="#1D2642" transform="translate(351.9375,11.875)"/>
<path d="M0 0 C3.96 0 7.92 0 12 0 C12 11.55 12 23.1 12 35 C8.04 35 4.08 35 0 35 C0 23.45 0 11.9 0 0 Z " fill="#2E2E2E" transform="translate(138,88)"/>
<path d="M0 0 C3.63 0 7.26 0 11 0 C11 11.55 11 23.1 11 35 C7.37 35 3.74 35 0 35 C0 23.45 0 11.9 0 0 Z " fill="#22272B" transform="translate(294,88)"/>
<path d="M0 0 C0.33 0.99 0.66 1.98 1 3 C-0.37109375 5.609375 -0.37109375 5.609375 -2.4375 8.75 C-3.18435144 9.91973532 -3.92771934 11.09170056 -4.66796875 12.265625 C-5.05388184 12.87728516 -5.43979492 13.48894531 -5.83740234 14.11914062 C-11.7503387 23.68513426 -16.09327861 33.09214553 -19 44 C-19.4125 45.175625 -19.825 46.35125 -20.25 47.5625 C-22.03300577 55.7346098 -21.81055445 63.51028952 -18 71 C-13.13522039 76.94584175 -7.83833732 80.0218935 -0.28515625 80.828125 C1.7878159 80.98606574 3.8622012 81.12633229 5.9375 81.25 C7.00291016 81.32734375 8.06832031 81.4046875 9.16601562 81.484375 C11.77667945 81.6716872 14.38736143 81.84310775 17 82 C11.33103052 85.77931299 2.65947022 84.734257 -4 84 C-10.89599879 82.09295836 -16.79206285 77.78591358 -21 72 C-26.02402306 62.6876144 -24.69142543 51.49776437 -22.16796875 41.6171875 C-17.27358385 26.45932657 -9.48485665 12.74527613 0 0 Z " fill="#151D36" transform="translate(164,118)"/>
<path d="M0 0 C3.71317907 1.14770989 5.2692056 1.85342428 7.4375 5.0625 C7.92126933 8.93265465 7.73301985 11.84877221 5.4375 15.0625 C2.76116974 17.1440902 1.31996332 17.05837591 -2.125 16.9375 C-5.5625 16.0625 -5.5625 16.0625 -7.5 14.4375 C-9.0215889 11.03630129 -9.07999792 8.74967269 -8.5625 5.0625 C-5.90798953 1.20139386 -4.7398766 0.08315573 0 0 Z " fill="#BCDBE9" transform="translate(272.5625,96.9375)"/>
<path d="M0 0 C2.5 2.125 2.5 2.125 4 5 C4.07481382 9.26438773 3.64839572 11.23718151 0.875 14.5 C-2.91613014 16.47798094 -4.92797973 16.13111674 -9 15 C-11.11130276 13.38951789 -11.89153752 12.4907927 -12.46875 9.87890625 C-12.52426701 5.76370783 -12.54853806 3.69813934 -9.9375 0.375 C-6.05118362 -1.44412682 -4.0801632 -1.26114135 0 0 Z " fill="#BFE0E5" transform="translate(236,98)"/>
<path d="M0 0 C1.18987889 2.35933068 2.33279241 4.72346177 3.4375 7.125 C5.91573387 11.68495031 9.25633227 12.52419226 14 14 C14 14.33 14 14.66 14 15 C12.741875 15.268125 11.48375 15.53625 10.1875 15.8125 C5.87695033 16.83952017 5.87695033 16.83952017 3 20 C2.17447918 22.65533766 1.58116705 25.27298538 1 28 C-1.18517685 25.81482315 -1.33605565 24.95213418 -2.0625 22.0625 C-3.03729956 19.23558128 -3.53033327 18.25489031 -6.1953125 16.80859375 C-8.45392257 16.07578453 -10.67299629 15.46832779 -13 15 C-12.67 14.34 -12.34 13.68 -12 13 C-10.741875 12.67 -9.48375 12.34 -8.1875 12 C-5.17759929 10.97868719 -4.21515371 10.36688745 -2.58203125 7.58203125 C-1.60275686 5.07551304 -0.73782707 2.58724889 0 0 Z " fill="#121833" transform="translate(220,21)"/>
<path d="M0 0 C1.875 1.125 1.875 1.125 3 3 C3.49891602 6.92005446 3.55253414 9.11594538 1.4375 12.5 C-1 14 -1 14 -4.5625 14 C-8 13 -8 13 -10 11.375 C-11.46981805 7.88418213 -10.98413921 5.60851044 -10 2 C-6.93558602 -1.63189805 -4.37003477 -1.30171248 0 0 Z " fill="#383838" transform="translate(148,67)"/>
<path d="M0 0 C2.875 1 2.875 1 4.8125 2.625 C6.37300943 6.11319754 5.86654664 8.36432898 4.875 12 C3.1875 14 3.1875 14 0.875 15 C-2.23532079 14.87304813 -4.32578043 14.47953174 -7 12.875 C-8.84809221 9.79484632 -8.61560718 7.49557617 -8.125 4 C-5.45946825 0.86408029 -4.13747529 0 0 0 Z " fill="#282F35" transform="translate(301.125,66)"/>
<path d="M0 0 C1.9375 1.25 1.9375 1.25 3 3 C2.62655575 7.11722288 -0.0007722 10.02623655 -2.4375 13.1875 C-2.84548828 13.73341797 -3.25347656 14.27933594 -3.67382812 14.84179688 C-6.72978584 18.86489292 -6.72978584 18.86489292 -9 20 C-9.08089542 17.22858283 -9.14044062 14.45952181 -9.1875 11.6875 C-9.22520508 10.50897461 -9.22520508 10.50897461 -9.26367188 9.30664062 C-9.27333984 8.54931641 -9.28300781 7.79199219 -9.29296875 7.01171875 C-9.3086792 6.31522217 -9.32438965 5.61872559 -9.34057617 4.90112305 C-8.41673074 -0.255855 -4.55464341 -0.56933043 0 0 Z " fill="#EEEFEF" transform="translate(173,97)"/>
<path d="M0 0 C11.74571336 -0.46517677 21.67918993 -0.67285749 31.9375 5.875 C38.61701263 12.75692211 40.39835421 19.39666751 40.26953125 28.7421875 C39.83465306 33.99854133 38.50185718 38.95805091 37 44 C36.01 43.505 36.01 43.505 35 43 C35.144375 42.33355469 35.28875 41.66710938 35.4375 40.98046875 C37.53090261 30.58614327 38.7279814 21.38857879 33 12 C28.6062909 6.0085785 21.9697452 3.83407528 14.83251953 2.63623047 C9.90209873 1.9425185 4.95867492 1.44180456 0 1 C0 0.67 0 0.34 0 0 Z " fill="#242C4B" transform="translate(320,6)"/>
<path d="M0 0 C0.33 0 0.66 0 1 0 C1.33 10.89 1.66 21.78 2 33 C5.45725973 31.27137013 7.05373372 30.17321076 9.625 27.5 C10.51058594 26.58734375 10.51058594 26.58734375 11.4140625 25.65625 C11.93742187 25.1096875 12.46078125 24.563125 13 24 C13.66 23.34 14.32 22.68 15 22 C15 26.29 15 30.58 15 35 C12.2465625 35.0309375 12.2465625 35.0309375 9.4375 35.0625 C4.64252573 35.42566965 2.13515528 36.100568 -1.25 39.5625 C-2.19713661 40.68327832 -3.12598475 41.82131041 -4 43 C-4.66 42.34 -5.32 41.68 -6 41 C-5.18958252 40.34749268 -4.37916504 39.69498535 -3.54418945 39.02270508 C-0.36089866 35.24069535 -0.26854896 32.36618528 -0.29296875 27.63671875 C-0.27784744 26.84473587 -0.26272614 26.05275299 -0.24714661 25.23677063 C-0.2043362 22.72005597 -0.19543868 20.20454218 -0.1875 17.6875 C-0.16435031 15.97587968 -0.13898397 14.26428781 -0.11132812 12.55273438 C-0.0485423 8.36838375 -0.01615501 4.18477996 0 0 Z " fill="#383D41" transform="translate(305,88)"/>
<path d="M0 0 C0.99 0.33 1.98 0.66 3 1 C2.55833496 1.3309668 2.11666992 1.66193359 1.66162109 2.00292969 C-15.90023441 15.20043476 -32.63059794 29.27316999 -48 45 C-48.66 44.34 -49.32 43.68 -50 43 C-42.80634384 35.61731345 -35.66209781 28.45896673 -27.5625 22.06640625 C-25.01828069 20.01474159 -22.63973367 17.85358387 -20.25 15.625 C-16.02995598 11.79230302 -11.62094678 8.29110743 -7.0625 4.875 C-6.41120117 4.37693848 -5.75990234 3.87887695 -5.08886719 3.36572266 C-3.45094111 2.16020563 -1.72988292 1.06938217 0 0 Z " fill="#19213C" transform="translate(239,44)"/>
<path d="M0 0 C0.66 0 1.32 0 2 0 C2.20625 0.928125 2.4125 1.85625 2.625 2.8125 C3.74446192 6.26004095 3.74446192 6.26004095 7.125 7.875 C8.07375 8.24625 9.0225 8.6175 10 9 C8.3125 10.125 6.625 11.25 4.9375 12.375 C2.87020873 14.1088572 2.02182813 15.53058201 1 18 C-0.33333333 16 -1.66666667 14 -3 12 C-6.05429073 10.78715124 -6.05429073 10.78715124 -9 10 C-6 8 -6 8 -3.9375 7.25 C-1.09887472 5.41862885 -0.82688878 3.16974031 0 0 Z " fill="#0E1635" transform="translate(328,15)"/>
<path d="M0 0 C0.66 0 1.32 0 2 0 C2.391875 0.94875 2.78375 1.8975 3.1875 2.875 C5.19793856 6.34127338 6.22699642 6.9802693 10 8 C9.01 8.66 8.02 9.32 7 10 C4.28686709 12.46648446 2.44796288 14.62141995 1 18 C0.62875 17.071875 0.2575 16.14375 -0.125 15.1875 C-2.30942959 11.4739697 -4.06718759 10.57312496 -8 9 C-6 7 -6 7 -3.4375 5.625 C-0.84640177 4.24196558 -0.84640177 4.24196558 -0.1875 1.8125 C-0.125625 1.214375 -0.06375 0.61625 0 0 Z " fill="#111934" transform="translate(229,146)"/>
<path d="M0 0 C0 0.66 0 1.32 0 2 C-10.20105493 6.71698612 -20.14975015 11.0008716 -31 14 C-31.69480469 14.23589844 -32.38960937 14.47179687 -33.10546875 14.71484375 C-37.35656817 16.15064554 -40.63296607 15.89123142 -45 15 C-45 14.67 -45 14.34 -45 14 C-43.45505859 13.67128906 -43.45505859 13.67128906 -41.87890625 13.3359375 C-29.359073 10.5827609 -12.08987081 0 0 0 Z " fill="#263147" transform="translate(223,185)"/>
<path d="M0 0 C1.78054434 4.78171342 -0.38710068 8.05949597 -2.3359375 12.49609375 C-6.32635978 20.89846179 -10.47654007 29.48993183 -16 37 C-16.66 37 -17.32 37 -18 37 C-16.28586136 32.17359846 -13.73087986 27.92053665 -11.1875 23.5 C-7.44730633 16.91115874 -4.35133627 10.46768807 -1.83984375 3.30859375 C-1 1 -1 1 0 0 Z " fill="#161D3C" transform="translate(355,49)"/>
<path d="M0 0 C0.66 0.33 1.32 0.66 2 1 C4.95901563 9.87704689 2.58750018 19.31339225 0 28 C-0.66 27.67 -1.32 27.34 -2 27 C-1.855625 26.3915625 -1.71125 25.783125 -1.5625 25.15625 C0.22443106 16.71796444 0.19362962 8.57348917 0 0 Z " fill="#2B3351" transform="translate(357,22)"/>
<path d="M0 0 C0.66 0.33 1.32 0.66 2 1 C-12.1129175 15.60427633 -12.1129175 15.60427633 -20 21 C-20.99 21 -21.98 21 -23 21 C-15.6987619 13.60650798 -7.9368612 6.70223834 0 0 Z " fill="#151C38" transform="translate(298,130)"/>
<path d="M0 0 C3.625 0.25 3.625 0.25 5.5625 1.625 C6.625 3.25 6.625 3.25 6.625 5.25 C2.335 5.25 -1.955 5.25 -6.375 5.25 C-3.89423077 0.28846154 -3.89423077 0.28846154 0 0 Z " fill="#F7F7F7" transform="translate(363.375,94.75)"/>
<path d="M0 0 C0.763125 0.61875 1.52625 1.2375 2.3125 1.875 C4.99625809 4.05597052 4.99625809 4.05597052 8 6 C7.236875 6.268125 6.47375 6.53625 5.6875 6.8125 C3.12619116 7.94424112 1.80307062 8.91223401 0 11 C-0.33 9.68 -0.66 8.36 -1 7 C-2.65 6.67 -4.3 6.34 -6 6 C-5.195625 5.38125 -4.39125 4.7625 -3.5625 4.125 C-0.96125481 2.25835959 -0.96125481 2.25835959 0 0 Z " fill="#101832" transform="translate(176,179)"/>
<path d="M0 0 C1.75570313 0.01353516 1.75570313 0.01353516 3.546875 0.02734375 C4.43890625 0.03894531 5.3309375 0.05054688 6.25 0.0625 C6.25 0.3925 6.25 0.7225 6.25 1.0625 C5.404375 1.18367187 4.55875 1.30484375 3.6875 1.4296875 C-3.90548978 2.53278306 -3.90548978 2.53278306 -11.375 4.25 C-14.75 5.0625 -14.75 5.0625 -17.75 4.0625 C-11.47337537 1.28630064 -6.96809027 -0.0696809 0 0 Z " fill="#161E3C" transform="translate(321.75,6.9375)"/>
<path d="M0 0 C3 1 3 1 4.25 3.375 C5 6 5 6 4 9 C4 8.34 4 7.68 4 7 C1.69 7.66 -0.62 8.32 -3 9 C-2.01 6.03 -1.02 3.06 0 0 Z " fill="#545454" transform="translate(318,132)"/>
<path d="M0 0 C0.763125 0.0825 1.52625 0.165 2.3125 0.25 C-0.06929263 3.99281699 -2.43225735 7.22727468 -5.6875 10.25 C-5.90929212 6.99704886 -5.97351103 4.82202207 -4.5 1.875 C-2.6875 0.25 -2.6875 0.25 0 0 Z " fill="#B0CCE6" transform="translate(325.6875,96.75)"/>
<path d="M0 0 C1.32 1.32 2.64 2.64 4 4 C2.84826645 6.46800047 1.95216435 8.04783565 0 10 C-1.37562854 8.71034824 -2.70766393 7.37310707 -4 6 C-4 4 -4 4 -2 1.875 C-1.34 1.25625 -0.68 0.6375 0 0 Z " fill="#172039" transform="translate(192,143)"/>
<path d="M0 0 C0.33 0.99 0.66 1.98 1 3 C-0.23414044 5.34282452 -1.49246493 7.48292584 -2.9375 9.6875 C-3.32357422 10.29400391 -3.70964844 10.90050781 -4.10742188 11.52539062 C-5.06246419 13.02280265 -6.03006086 14.51219401 -7 16 C-7.66 15.67 -8.32 15.34 -9 15 C-7.61219205 11.10993227 -5.7847773 8.03441292 -3.375 4.6875 C-2.74335938 3.80449219 -2.11171875 2.92148438 -1.4609375 2.01171875 C-0.97882813 1.34785156 -0.49671875 0.68398437 0 0 Z " fill="#131A2E" transform="translate(164,118)"/>
<path d="M0 0 C0.66 0.33 1.32 0.66 2 1 C0.58474822 2.58459815 -0.8322642 4.16762391 -2.25 5.75 C-3.03890625 6.63171875 -3.8278125 7.5134375 -4.640625 8.421875 C-6.70592672 10.67866165 -8.81735064 12.85739926 -11 15 C-10.52042767 10.71446004 -7.7812778 8.23068595 -4.9375 5.25 C-4.46505859 4.74339844 -3.99261719 4.23679687 -3.50585938 3.71484375 C-2.34369289 2.47050387 -1.17269839 1.23441936 0 0 Z " fill="#04060E" transform="translate(187,90)"/>
<path d="M0 0 C0.33 0 0.66 0 1 0 C0.85816304 1.75032844 0.71136571 3.50025534 0.5625 5.25 C0.48128906 6.22453125 0.40007812 7.1990625 0.31640625 8.203125 C-0.22303456 12.97151538 -0.22303456 12.97151538 -1 15 C-1.99 15.33 -2.98 15.66 -4 16 C-3.27275406 10.47293087 -1.66554027 5.30039859 0 0 Z " fill="#283247" transform="translate(145,151)"/>
<path d="M0 0 C0.33 0.66 0.66 1.32 1 2 C-0.95436127 2.55582752 -2.91366982 3.09428713 -4.875 3.625 C-5.96554687 3.92664063 -7.05609375 4.22828125 -8.1796875 4.5390625 C-9.11039062 4.69117188 -10.04109375 4.84328125 -11 5 C-11.66 4.34 -12.32 3.68 -13 3 C-11.21189234 2.30329584 -9.41937948 1.61788811 -7.625 0.9375 C-6.62726563 0.55464844 -5.62953125 0.17179688 -4.6015625 -0.22265625 C-2 -1 -2 -1 0 0 Z " fill="#303956" transform="translate(305,11)"/>
<path d="M0 0 C0.66 0.99 1.32 1.98 2 3 C0.88368586 4.83863505 -0.24329627 6.67079723 -1.375 8.5 C-2.00148438 9.5209375 -2.62796875 10.541875 -3.2734375 11.59375 C-3.84320313 12.3878125 -4.41296875 13.181875 -5 14 C-5.66 14 -6.32 14 -7 14 C-5.23570801 9.02790438 -2.6060834 4.56561939 0 0 Z " fill="#1F2845" transform="translate(344,72)"/>
<path d="M0 0 C0.33 0.66 0.66 1.32 1 2 C-2.72346836 6.42094803 -6.29521038 10.57833482 -11 14 C-9.42219077 10.28954753 -7.09296752 7.70093616 -4.375 4.75 C-3.55773437 3.85796875 -2.74046875 2.9659375 -1.8984375 2.046875 C-1.27195312 1.37140625 -0.64546875 0.6959375 0 0 Z " fill="#03050A" transform="translate(319,108)"/>
<path d="M0 0 C4.80488042 1.6841026 6.64668336 3.3838789 9 8 C8.75 10.875 8.75 10.875 8 13 C7.60167969 12.15695313 7.60167969 12.15695313 7.1953125 11.296875 C5.90668966 8.82069778 4.43869639 6.56155118 2.875 4.25 C2.33617187 3.45078125 1.79734375 2.6515625 1.2421875 1.828125 C0.83226562 1.22484375 0.42234375 0.6215625 0 0 Z " fill="#1E2544" transform="translate(349,12)"/>
<path d="M0 0 C0.33 0.99 0.66 1.98 1 3 C-0.65234375 5.48046875 -0.65234375 5.48046875 -2.9375 8.1875 C-3.68902344 9.08855469 -4.44054687 9.98960938 -5.21484375 10.91796875 C-5.80394531 11.60503906 -6.39304688 12.29210937 -7 13 C-7.66 12.67 -8.32 12.34 -9 12 C-6.03 8.04 -3.06 4.08 0 0 Z " fill="#172039" transform="translate(175,103)"/>
<path d="M0 0 C2.97 0.33 5.94 0.66 9 1 C9.33 1.99 9.66 2.98 10 4 C7.03 3.67 4.06 3.34 1 3 C0.67 2.01 0.34 1.02 0 0 Z " fill="#252F44" transform="translate(156,198)"/>
<path d="M0 0 C3.77727089 1.81309003 7.37269822 3.9073259 11 6 C10.67 6.99 10.34 7.98 10 9 C5.82117329 6.43571997 2.87494471 3.98069267 0 0 Z " fill="#0F1731" transform="translate(145,191)"/>
<path d="M0 0 C1.32 1.65 2.64 3.3 4 5 C3.01 5.495 3.01 5.495 2 6 C1.01 7.485 1.01 7.485 0 9 C-1.32 7.35 -2.64 5.7 -4 4 C-2.68 2.68 -1.36 1.36 0 0 Z " fill="#19223B" transform="translate(205,172)"/>
<path d="M0 0 C1.65 1.32 3.3 2.64 5 4 C3.35 5.32 1.7 6.64 0 8 C-1.32 6.35 -2.64 4.7 -4 3 C-3.01 2.67 -2.02 2.34 -1 2 C-0.67 1.34 -0.34 0.68 0 0 Z " fill="#171F3D" transform="translate(294,26)"/>
<path d="M0 0 C1.32 0.66 2.64 1.32 4 2 C4 2.66 4 3.32 4 4 C3.34 4 2.68 4 2 4 C2 4.66 2 5.32 2 6 C1.34 6 0.68 6 0 6 C0 5.34 0 4.68 0 4 C-0.99 3.67 -1.98 3.34 -3 3 C-2.01 2.01 -1.02 1.02 0 0 Z " fill="#1D273E" transform="translate(159,157)"/>
<path d="M0 0 C1.32 1.65 2.64 3.3 4 5 C2.68 5.99 1.36 6.98 0 8 C-0.33 7.34 -0.66 6.68 -1 6 C-1.99 5.34 -2.98 4.68 -4 4 C-2.68 2.68 -1.36 1.36 0 0 Z " fill="#131B39" transform="translate(294,51)"/>
<path d="M0 0 C0.99 0.33 1.98 0.66 3 1 C1.71283353 2.00578589 0.42011342 3.00446798 -0.875 4 C-1.95394531 4.8353125 -1.95394531 4.8353125 -3.0546875 5.6875 C-5 7 -5 7 -7 7 C-5.65117186 2.95351557 -3.65173931 2.04497401 0 0 Z " fill="#151E38" transform="translate(262,160)"/>
<path d="M0 0 C0.99 0.33 1.98 0.66 3 1 C0.69 3.31 -1.62 5.62 -4 8 C-4.66 7.34 -5.32 6.68 -6 6 C-4.02 4.02 -2.04 2.04 0 0 Z " fill="#2E3751" transform="translate(305,123)"/>
<path d="M0 0 C-2.8086289 2.8086289 -5.11134294 2.72711179 -9 3 C-9.99 2.34 -10.98 1.68 -12 1 C-7.93631321 0.22596442 -4.13574827 -0.0984702 0 0 Z " fill="#232D43" transform="translate(190,198)"/>
<path d="M0 0 C1.32 0.66 2.64 1.32 4 2 C1.03 4.475 1.03 4.475 -2 7 C-1.67 6.401875 -1.34 5.80375 -1 5.1875 C0.20787988 2.94613529 0.20787988 2.94613529 0 0 Z " fill="#333D44" transform="translate(188,88)"/>
<path d="M0 0 C1.98 0.495 1.98 0.495 4 1 C4.33 2.65 4.66 4.3 5 6 C4.67 5.34 4.34 4.68 4 4 C2.35 4 0.7 4 -1 4 C-0.67 2.68 -0.34 1.36 0 0 Z " fill="#7F7F7F" transform="translate(318,135)"/>
<path d="M0 0 C0 4.0333534 -1.60879918 5.83517538 -4 9 C-4.66 9 -5.32 9 -6 9 C-4.47291037 5.56404834 -2.40072955 2.88087546 0 0 Z " fill="#04060B" transform="translate(335,88)"/>
<path d="M0 0 C0 4.38968456 -2.12805101 5.76905739 -5 9 C-5 4.61031544 -2.87194899 3.23094261 0 0 Z " fill="#1C2440" transform="translate(326,100)"/>
</svg>
